<svg xmlns="http://www.w3.org/2000/svg" xmlns:xlink="http://www.w3.org/1999/xlink" width="500" zoomAndPan="magnify" viewBox="0 0 375 374.999991" height="500" preserveAspectRatio="xMidYMid meet" version="1.0"><defs><g/></defs><g fill="#000000" fill-opacity="1"><g transform="translate(116.970264, 163.564906)"><g><path d="M 0.867188 -2.378906 L -8.878906 -5.929688 L -9.25 -4.910156 L 0.496094 -1.355469 Z M 0.867188 -2.378906 "/></g></g></g><g fill="#000000" fill-opacity="1"><g transform="translate(121.341859, 152.812368)"><g><path d="M -8.082031 -6.660156 L 0.757812 -1.230469 L 2.371094 -3.859375 C 3.960938 -6.445312 3.429688 -9.632812 0.800781 -11.25 C -1.695312 -12.78125 -4.773438 -12.046875 -6.464844 -9.292969 Z M 0.457031 -2.691406 L -6.644531 -7.054688 L -5.625 -8.710938 C -4.210938 -11.015625 -1.796875 -11.523438 0.234375 -10.273438 C 2.300781 -9.003906 2.855469 -6.59375 1.480469 -4.359375 Z M 0.457031 -2.691406 "/></g></g></g><g fill="#000000" fill-opacity="1"><g transform="translate(131.627788, 137.846267)"><g><path d="M 0.820312 -0.808594 L -0.226562 -3.496094 L 3.800781 -7.46875 L 6.460938 -6.371094 L 7.285156 -7.179688 L -3.1875 -11.425781 L -4.066406 -10.558594 L 0.0273438 -0.0273438 Z M 2.800781 -7.878906 L -0.632812 -4.492188 L -2.851562 -10.175781 Z M 2.800781 -7.878906 "/></g></g></g><g fill="#000000" fill-opacity="1"><g transform="translate(144.87685, 126.060492)"><g><path d="M 2.410156 -6.574219 L 2.769531 -13.78125 L 1.703125 -13.136719 L 1.421875 -7.183594 L -3.9375 -9.738281 L -5.058594 -9.0625 L 1.476562 -5.996094 L 3.734375 -2.25 L 4.675781 -2.816406 Z M 2.410156 -6.574219 "/></g></g></g><g fill="#000000" fill-opacity="1"><g transform="translate(160.104878, 117.879344)"><g><path d="M 1.097656 -0.347656 L 1.386719 -3.21875 L 6.777344 -4.925781 L 8.652344 -2.738281 L 9.75 -3.085938 L 2.351562 -11.625 L 1.175781 -11.253906 L 0.0390625 -0.0117188 Z M 6.074219 -5.746094 L 1.476562 -4.289062 L 2.082031 -10.359375 Z M 6.074219 -5.746094 "/></g></g></g><g fill="#000000" fill-opacity="1"><g transform="translate(177.298017, 113.432329)"><g><path d="M 3 -9.621094 L 3.738281 -0.296875 L 4.832031 -0.382812 L 4.097656 -9.707031 L 7.546875 -9.976562 L 7.464844 -10.996094 L -0.539062 -10.363281 L -0.457031 -9.347656 Z M 3 -9.621094 "/></g></g></g><g fill="#000000" fill-opacity="1"><g transform="translate(193.537858, 113.093389)"><g/></g></g><g fill="#000000" fill-opacity="1"><g transform="translate(204.795108, 114.805262)"><g><path d="M 4.03125 1.320312 C 6.023438 1.917969 7.625 0.960938 8.0625 -0.496094 C 8.261719 -1.15625 8.160156 -1.796875 7.878906 -2.378906 C 7.511719 -3.136719 6.742188 -3.796875 5.757812 -4.386719 C 4.375 -5.214844 3.902344 -5.898438 4.171875 -6.796875 C 4.484375 -7.839844 5.667969 -8.1875 6.734375 -7.867188 C 8.054688 -7.472656 8.445312 -6.523438 8.527344 -5.601562 L 9.566406 -5.828125 C 9.476562 -7.140625 8.703125 -8.34375 7.054688 -8.835938 C 5.402344 -9.332031 3.625 -8.761719 3.117188 -7.058594 C 2.699219 -5.675781 3.363281 -4.523438 5.257812 -3.414062 C 6.625 -2.617188 7.285156 -1.78125 6.972656 -0.742188 C 6.660156 0.300781 5.492188 0.695312 4.324219 0.34375 C 2.964844 -0.0625 2.484375 -1.039062 2.359375 -2.335938 L 1.320312 -2.136719 C 1.4375 -0.453125 2.292969 0.800781 4.03125 1.320312 Z M 4.03125 1.320312 "/></g></g></g><g fill="#000000" fill-opacity="1"><g transform="translate(219.72992, 120.064501)"><g><path d="M 1 0.570312 L 3.304688 -1.167969 L 8.21875 1.632812 L 7.882812 4.492188 L 8.886719 5.0625 L 10.132812 -6.164062 L 9.0625 -6.777344 L 0.0351562 0.0195312 Z M 8.34375 0.5625 L 4.152344 -1.828125 L 9.023438 -5.503906 Z M 8.34375 0.5625 "/></g></g></g><g fill="#000000" fill-opacity="1"><g transform="translate(234.672076, 129.556098)"><g><path d="M 7.148438 6.84375 L 14.324219 -0.652344 L 13.546875 -1.394531 L 7.554688 4.867188 L 9.125 -5.625 L 8.214844 -6.496094 L 1.042969 1 L 1.820312 1.742188 L 7.929688 -4.644531 L 6.308594 6.035156 Z M 7.148438 6.84375 "/></g></g></g><g fill="#000000" fill-opacity="1"><g transform="translate(247.548653, 143.175736)"><g><path d="M 5.214844 8.410156 L 14.03125 2.945312 L 13.464844 2.03125 L 6.101562 6.597656 L 10.242188 -3.167969 L 9.578125 -4.238281 L 0.761719 1.226562 L 1.328125 2.140625 L 8.835938 -2.515625 L 4.601562 7.421875 Z M 5.214844 8.410156 "/></g></g></g><g fill="#000000" fill-opacity="1"><g transform="translate(256.513021, 159.820811)"><g><path d="M 0.867188 2.378906 L 10.613281 -1.175781 L 10.242188 -2.195312 L 0.496094 1.355469 Z M 0.867188 2.378906 "/></g></g></g><g fill="#000000" fill-opacity="1"><g transform="translate(118.045013, 234.282268)"><g><path d="M 9.0625 -5.25 L 0.890625 1.136719 L 2.789062 3.570312 C 4.660156 5.960938 7.832031 6.574219 10.261719 4.671875 C 12.570312 2.871094 12.953125 -0.273438 10.964844 -2.820312 Z M 2.363281 1.367188 L 8.925781 -3.765625 L 10.125 -2.234375 C 11.792969 -0.101562 11.425781 2.335938 9.546875 3.804688 C 7.636719 5.296875 5.183594 4.976562 3.570312 2.910156 Z M 2.363281 1.367188 "/></g></g></g><g fill="#000000" fill-opacity="1"><g transform="translate(131.387038, 249.386585)"><g><path d="M 12.050781 -2.351562 L 12.679688 -3.136719 L 7.609375 -7.195312 L 1.128906 0.902344 L 6.234375 4.992188 L 6.867188 4.207031 L 2.605469 0.796875 L 4.957031 -2.140625 L 8.8125 0.945312 L 9.441406 0.160156 L 5.585938 -2.925781 L 7.828125 -5.730469 Z M 12.050781 -2.351562 "/></g></g></g><g fill="#000000" fill-opacity="1"><g transform="translate(146.223542, 259.980622)"><g><path d="M 4.753906 -9.226562 L 4.039062 1.933594 L 5.136719 2.460938 L 13.382812 -5.09375 L 12.316406 -5.605469 L 5.121094 1.085938 L 5.839844 -8.703125 Z M 4.753906 -9.226562 "/></g></g></g><g fill="#000000" fill-opacity="1"><g transform="translate(164.369028, 267.385654)"><g><path d="M 9.773438 -7.429688 L 9.988281 -8.414062 L 3.652344 -9.816406 L 1.410156 0.3125 L 7.800781 1.726562 L 8.019531 0.742188 L 2.6875 -0.4375 L 3.5 -4.109375 L 8.324219 -3.042969 L 8.542969 -4.027344 L 3.71875 -5.09375 L 4.492188 -8.597656 Z M 9.773438 -7.429688 "/></g></g></g><g fill="#000000" fill-opacity="1"><g transform="translate(182.292934, 270.271001)"><g><path d="M 2.535156 -1.007812 L 2.578125 -10.363281 L 1.492188 -10.367188 L 1.445312 0.0078125 L 7.445312 0.0351562 L 7.449219 -0.984375 Z M 2.535156 -1.007812 "/></g></g></g><g fill="#000000" fill-opacity="1"><g transform="translate(199.462813, 269.489419)"><g><path d="M 9.675781 -7.601562 C 9.007812 -10.480469 6.316406 -12.222656 3.425781 -11.550781 C 0.496094 -10.875 -1.140625 -8.085938 -0.46875 -5.183594 C 0.199219 -2.304688 2.890625 -0.5625 5.78125 -1.230469 C 8.710938 -1.910156 10.347656 -4.699219 9.675781 -7.601562 Z M 8.59375 -7.285156 C 9.117188 -5.023438 7.910156 -2.773438 5.589844 -2.234375 C 3.238281 -1.691406 1.144531 -3.214844 0.613281 -5.5 C 0.0898438 -7.757812 1.296875 -10.011719 3.617188 -10.550781 C 5.96875 -11.09375 8.066406 -9.554688 8.59375 -7.285156 Z M 8.59375 -7.285156 "/></g></g></g><g fill="#000000" fill-opacity="1"><g transform="translate(219.901855, 263.402558)"><g><path d="M 1.289062 -0.652344 L 2.257812 -1.144531 L 0.425781 -4.761719 L 2.386719 -5.753906 C 4.632812 -6.890625 5.152344 -8.773438 4.355469 -10.34375 C 3.625 -11.785156 1.957031 -12.617188 -0.300781 -11.476562 L -3.398438 -9.90625 Z M -0.0273438 -5.65625 L -1.96875 -9.488281 L 0.078125 -10.523438 C 1.894531 -11.445312 2.917969 -10.714844 3.378906 -9.804688 C 3.851562 -8.871094 3.671875 -7.53125 1.96875 -6.667969 Z M -0.0273438 -5.65625 "/></g></g></g><g fill="#000000" fill-opacity="1"><g transform="translate(235.830117, 254.153791)"><g><path d="M 0.15625 -12.277344 L -0.484375 -13.050781 L -5.492188 -8.917969 L 1.113281 -0.917969 L 6.160156 -5.085938 L 5.519531 -5.863281 L 1.308594 -2.386719 L -1.085938 -5.289062 L 2.726562 -8.433594 L 2.085938 -9.210938 L -1.726562 -6.066406 L -4.011719 -8.835938 Z M 0.15625 -12.277344 "/></g></g></g><g fill="#000000" fill-opacity="1"><g transform="translate(249.205742, 241.796226)"><g><path d="M -1.785156 -4.566406 L -0.492188 -6.246094 L 4.703125 -6.109375 L 5.511719 -7.160156 L 0.0820312 -7.292969 C 0.867188 -8.644531 0.871094 -10.277344 -0.535156 -11.363281 C -1.816406 -12.347656 -3.605469 -12.320312 -5.148438 -10.316406 L -7.339844 -7.472656 L 0.878906 -1.144531 L 1.542969 -2.003906 Z M -2.570312 -5.171875 L -5.867188 -7.710938 L -4.382812 -9.640625 C -3.175781 -11.207031 -1.980469 -11.089844 -1.171875 -10.464844 C -0.34375 -9.828125 0.046875 -8.574219 -1.101562 -7.082031 Z M -2.570312 -5.171875 "/></g></g></g><g fill="#000000" fill-opacity="1"><g transform="translate(205.3673, 206.464903)"><g><path d="M 26.265625 -32.640625 C 24.835938 -33.410156 23.316406 -34.03125 21.703125 -34.5 C 20.085938 -34.976562 18.566406 -35.21875 17.140625 -35.21875 C 14.984375 -35.21875 13.269531 -34.734375 12 -33.765625 C 10.738281 -32.796875 10.109375 -31.46875 10.109375 -29.78125 C 10.109375 -28.132812 10.847656 -26.785156 12.328125 -25.734375 C 13.816406 -24.691406 15.9375 -23.660156 18.6875 -22.640625 C 20.738281 -21.910156 22.46875 -21.113281 23.875 -20.25 C 25.289062 -19.382812 26.460938 -18.191406 27.390625 -16.671875 C 28.328125 -15.148438 28.796875 -13.21875 28.796875 -10.875 C 28.796875 -8.75 28.265625 -6.828125 27.203125 -5.109375 C 26.140625 -3.390625 24.628906 -2.035156 22.671875 -1.046875 C 20.710938 -0.0546875 18.410156 0.4375 15.765625 0.4375 C 13.316406 0.4375 10.957031 0.046875 8.6875 -0.734375 C 6.414062 -1.523438 4.414062 -2.523438 2.6875 -3.734375 L 5.0625 -7.96875 C 6.414062 -6.9375 8.039062 -6.0625 9.9375 -5.34375 C 11.84375 -4.632812 13.625 -4.28125 15.28125 -4.28125 C 17.40625 -4.28125 19.265625 -4.828125 20.859375 -5.921875 C 22.453125 -7.023438 23.25 -8.660156 23.25 -10.828125 C 23.25 -12.660156 22.578125 -14.113281 21.234375 -15.1875 C 19.898438 -16.269531 18.023438 -17.289062 15.609375 -18.25 C 13.367188 -19.09375 11.503906 -19.914062 10.015625 -20.71875 C 8.535156 -21.519531 7.265625 -22.625 6.203125 -24.03125 C 5.140625 -25.445312 4.609375 -27.21875 4.609375 -29.34375 C 4.609375 -32.457031 5.695312 -34.972656 7.875 -36.890625 C 10.0625 -38.816406 12.894531 -39.835938 16.375 -39.953125 C 20.664062 -39.953125 24.640625 -38.890625 28.296875 -36.765625 Z M 26.265625 -32.640625 "/></g></g></g><g fill="#000000" fill-opacity="1"><g transform="translate(145.585035, 206.464903)"><g><path d="M 11.046875 -39.734375 L 11.046875 0 L 5.71875 0 L 5.71875 -39.734375 Z M 11.046875 -39.734375 "/></g></g></g><path stroke-linecap="butt" transform="matrix(0.000000000000000046, -0.749107, 0.75, 0.000000000000000046, 186.746858, 231.803538)" fill="none" stroke-linejoin="miter" d="M -0.00153399 0.998981 L 118.14953 0.998981 " stroke="#000000" stroke-width="2" stroke-opacity="1" stroke-miterlimit="4"/></svg>